<?xml version="1.0" encoding="UTF-8" standalone="no"?>
<svg
   xmlns:dc="http://purl.org/dc/elements/1.1/"
   xmlns:cc="http://creativecommons.org/ns#"
   xmlns:rdf="http://www.w3.org/1999/02/22-rdf-syntax-ns#"
   xmlns:svg="http://www.w3.org/2000/svg"
   xmlns="http://www.w3.org/2000/svg"
   xmlns:sodipodi="http://sodipodi.sourceforge.net/DTD/sodipodi-0.dtd"
   xmlns:inkscape="http://www.inkscape.org/namespaces/inkscape"
   viewBox="380 90 642.2094 478.90234"
   version="1.1"
   id="svg52"
   sodipodi:docname="totalMap.svg"
   width="642.20941"
   height="478.90234"
   inkscape:version="1.0.1 (3bc2e813f5, 2020-09-07)">
  <metadata
     id="metadata58">
    <rdf:RDF>
      <cc:Work
         rdf:about="">
        <dc:format>image/svg+xml</dc:format>
        <dc:type
           rdf:resource="http://purl.org/dc/dcmitype/StillImage" />
        <dc:title></dc:title>
      </cc:Work>
    </rdf:RDF>
  </metadata>
  <defs
     id="defs56" />
  <sodipodi:namedview
     pagecolor="#ffffff"
     bordercolor="#666666"
     borderopacity="1"
     objecttolerance="10"
     gridtolerance="10"
     guidetolerance="10"
     inkscape:pageopacity="0"
     inkscape:pageshadow="2"
     inkscape:window-width="1920"
     inkscape:window-height="1028"
     id="namedview54"
     showgrid="false"
     fit-margin-top="0"
     fit-margin-left="0"
     fit-margin-right="0"
     fit-margin-bottom="0"
     inkscape:zoom="1.0663027"
     inkscape:cx="375.00122"
     inkscape:cy="171.75323"
     inkscape:window-x="-9"
     inkscape:window-y="14"
     inkscape:window-maximized="1"
     inkscape:current-layer="svg52" />
  <path class="land1"
     d="m 426.57657,344.37268 82,-51 131,1 73,26 104,-95 26,-13 6,30 32,-7 -13,-52 89,26 18,21 47.00003,59 -68.00003,90 -97,71 -83,78 -299,40 -94,-100 z"
     stroke="#000000"
     stroke-width="1"
     fill="#ffffff"
     id="path50" />
  <path class="land2"
     d="m 747.70093,117.54898 -66,-27.000004 -58,7 -23,30.000004 -34,-37.000004 -93,20.000004 -3,74 60,-6 49,43 58,40 13,-18 57,20 57,-87 z"
     stroke="#000000"
     stroke-width="1"
     fill="#ffffff"
     id="path70" />
</svg>
