<?xml version="1.0" encoding="UTF-8"?><svg id="b" xmlns="http://www.w3.org/2000/svg" viewBox="0 0 557.03 789.81"><g id="c"><g id="d"><path d="m101.66,491.9h-.27l-.51-.04c-.36-.03-.7-.1-1.05-.14,0,4.56,0,9.03,0,13.41,7.74-6.82,15.04-14.01,16.84-22.82.98-4.64-.2-9.4-3.23-13.11l-.12-.15-.11-.15c-2.58-3.49-6.52-5.58-10.53-5.58-.31,0-.62.01-.94.04l-.31.02c-.53.02-1.07.1-1.59.23v10.82c.81.23,1.68.41,2.65.5,4.66.45,8.09,4.59,7.66,9.25-.42,4.41-4.06,7.71-8.48,7.71Z" style="fill:#daa520;"/><path d="m189.16,667.45c13.28-.3,26.68-1.02,39.77-1.79-2.44-3.96-4.69-8.21-6.76-12.78-9.69,7.09-20.88,12.11-33.01,14.57Z" style="fill:#daa520;"/><path d="m151.09,543.76c1.42-.88,2.97-1.31,4.54-1.31,2.94,0,5.62,1.48,7.19,3.96.73,1.16,1.16,2.45,1.27,3.77,1.87,7.04,4.68,12.14,8.57,15.59,4.63,4.02,9.05,6.08,13.09,6.08.37,0,.74-.02,1.11-.05h.14c4.91-.39,9.72-3.63,12.56-8.46l.1-.17c1.26-2.02,2.19-4.35,2.81-6.95-.26-3.45-.49-6.98-.71-10.58-7.47-14.95-26.75-23.72-42.92-23.72-3.95,0-7.71.49-11.18,1.45-25.34,7.55-38.83,36.6-38.71,60.19,1.25,24.97,21.29,48.55,45.7,53.72,4.44.91,9.08,1.38,13.75,1.38,13.12,0,25.6-3.69,35.12-10.38,3.05-2.13,5.74-4.5,8.13-7.04-1.2-4.99-2.29-10.23-3.28-15.73-9.4,8.16-20.92,12.63-33.25,12.63-1.55,0-3.13-.07-4.69-.22-13.71-1.23-26.39-8.94-33.93-20.62-9.2-13.65-7.83-30.84,3.48-43.85,3.08-3.73,6.81-7,11.09-9.7Z" style="fill:#daa520;"/><path d="m96.13,632.9c-.26,2.55-.53,5.04-.82,7.47,3.27,3.59,6.92,6.81,10.9,9.57,6.94,4.89,15.14,8.73,24.52,11.5-13.59-6.28-25.45-15.99-34.6-28.54Z" style="fill:#daa520;"/><path d="m360.37,487.33c76.87,0,94.84-73.87,94.84-124.78l-12.98-1c-7.99,35.94-35.94,47.92-67.88,47.92-43.38,0-99.04-20.46-156.6-36.18-4.34,2.92-9.5,4.75-14.97,5.13h-.26c-.46.03-.91.04-1.37.04-.69,0-1.39-.02-2.09-.06,10.02,8.82,21.33,17.2,34.18,25.35l.11.07c4.58,3.01,9.4,5.97,14.07,8.83,11.42,7.01,23.22,14.25,33.7,23.51l.14.12c1.02.95,2.54,2.4,4.03,3.99,5.77,6.01,9.01,14.81,8.9,24.17-.02,4.4-1.09,8.51-2.99,12.06,23.45,6.54,46.77,10.82,69.16,10.82Z" style="fill:#daa520;"/><path d="m163.24,695.81c-2.45-.78-5.11-1.18-7.92-1.18-.79,0-1.59.03-2.39.1l-.28.02c-2.9.13-5.32,1.04-7.21,2.7l-.1.09c-3.66,3.13-5.8,8.96-5.59,15.23.12,3.28,1.89,6.67,4.73,9.05l.11.09c.25.21.54.44.89.69.45.29.86.54,1.26.74,1.89.97,3.91,1.47,5.97,1.47,2.76,0,5.63-.91,8.28-2.62l.87-.56.77-.25c.34-.13.67-.23,1.02-.31.56-.13,1.12-.2,1.71-.22h.81s.58.07.58.07c.64.09,1.19.23,1.74.44.53.19,1.03.43,1.5.72l.74.47.18.16.51.35.86,1.05.6.77.13.3.31.48.24.79c.11.3.21.62.28.95l.19.87.05,1.56-.12.83c-.08.52-.21,1.05-.41,1.58l-.23.66-.49.85-.07.11c-.14.22-.29.43-.45.64l-.43.62-.93.8c-1.62,1.33-3.38,2.58-5.22,3.73-3.41,2.45-7.14,4.45-11.12,5.96,2.41,1.45,4.81,2.8,7.22,4.07,10-7.36,16.91-18.02,16.59-30.5v-.27c.07-9.19-4.56-19.88-15.09-23.06l-.13-.04Z" style="fill:#daa520;"/><path d="m322.09,78.9c2.61,1.45,4.43,3.76,5.22,6.54.79,2.78.44,5.7-.96,8.22l-.16.29-.18.27c-1.15,1.72-2.33,3.09-3.38,4.31l-.49.58c-3.35,3.83-7.11,7.45-11.19,10.76-10,8.28-21.63,14.09-33.86,17.08,1.73.55,3.43,1.13,5.12,1.76,13.76-4.65,29.45-6.73,47.22-6.73,100.83,0,140.76,60.89,132.77,144.75l10.98,2.99c21.96-30.95,32.94-61.89,32.94-90.84,0-17.97-2-30.95-6.99-45.92,8.98-13.98,13.98-29.95,13.98-45.92,0-7.99-1-12.98-2-15.97l-10.98-2c-11.98,6.99-24.96,11.98-55.9,18.97-34.94-14.97-66.88-18.97-136.76-18.97-15.12,0-28.95.12-41.6.41-.23,3.1-.61,6.16-1.12,9.16,8.18-4.88,17.61-7.51,27.54-7.51s20.41,2.69,29.8,7.77Z" style="fill:#daa520;"/><path d="m262.21,451.52l.38-.13,1.3-.13h1.41c-5.88-4.92-12.45-9.16-19.33-13.6l-2.09-1.35c-5.21-3.2-10.64-6.62-16.16-10.27,7.08,11.63,13.59,23.58,19.19,35.9,1.2.44,2.39.88,3.59,1.32.48-1.22,1.09-2.4,1.84-3.49,1.79-2.88,4.41-5.4,7.59-7.3.7-.42,1.48-.74,2.29-.94Z" style="fill:#daa520;"/><path d="m303.11,740.23c.36-.86.55-1.54.64-2.07-.77,1.09-1.4,2.37-1.84,3.73.45-.55.85-1.11,1.2-1.66Z" style="fill:#daa520;"/><path d="m200.17,331.63c.79-27.05,2.53-50.96,5.28-72.01-3.45-2.34-6.75-4.96-9.83-7.86-10.32-9.58-17.45-21.69-20.04-34.08-.69-3.21-1.11-6.6-1.24-10.01-.1-3.29.07-6.62.49-9.95-2.94,2.56-6.33,4.58-10.06,5.86-3.19,1.14-6.54,1.72-9.97,1.72-7.85,0-15.08-3.1-19.87-8.52-6.25-6.59-9.13-16.54-7.37-25.45,1.17-6.71,4.92-12.37,10.58-15.94.56-.35,1.15-.64,1.76-.85-19.19,2.09-33.59,23.86-34.85,43.52-.24,5.51.06,11.67.93,18.84,6.32,46.58,34.6,89.57,64.39,129.12,11.4,8.35,20.62,12.78,28.06,13.48-2.12-.96-3.97-2.47-5.33-4.44-3.11-4.22-3.72-9.62-1.62-14.5,1.67-3.87,4.87-7.09,8.68-8.95Z" style="fill:#daa520;"/><path d="m290.98,722.16c4.64-4.41,10.91-6.98,17.22-7.07h.41c6.25,0,13.01,2.22,17.97,6.56-2.34-3.55-5.09-6.67-8.16-9.43-22.91-2.27-41.59-6.98-56.77-15.26,4.4,7.96,6.33,16.99,4.97,25.38-1.8,11.31-9.63,21.08-19.95,24.91-3.18,1.27-6.65,1.94-10.04,1.94-3,0-5.9-.5-8.63-1.49-6.82-2.39-11.86-7.12-13.84-12.96l-.05-.15-.04-.15c-1.36-4.62-.77-9.39,1.63-13.08l.07-.11c3.09-4.59,8.54-7.56,13.88-7.56,2.19,0,4.26.49,6.16,1.44,0,0-6.98,14.39-6.98,14.39l.96-.36s.04.08.06.13c0-.02,0-.04,0-.05,0,0,0,.02,0,.07.37.7,1.58,1.67,3.53,2.27l.1.03c.81.26,1.67.4,2.56.4,1.33,0,2.7-.3,3.97-.86l.28-.12c5-2,8.55-7.76,8.45-13.7-.11-4.78-2.47-9.38-4.42-12.38-3.57-5.5-9.66-9.53-17.23-11.42l-1.65.11c-4.44.31-9.03.62-13.58.85-5.81.29-12.09.61-18.55.82,8.63,14.62,8.64,34.19,1.99,49.03-2.47,5.41-5.73,10.43-9.64,14.97,24.27,7.1,53.72,8.31,101.9,8.5-2.1-2.82-3.84-5.96-5.1-9.37-4.82-13.01-1.63-26.58,8.53-36.29Z" style="fill:#daa520;"/><path d="m111.76,738.79c-10.42-10.26-14.66-26.05-10.8-40.22,1.53-5.82,4.29-11.09,8.08-15.53-3.68-1.62-7.21-3.41-10.58-5.34.16,6.35-1.32,12.87-4.52,18.77l-.1.18c-5.49,9.53-15.77,16.45-27.82,18.84-3.77,3.77-7.95,7.21-12.6,10.42,14.99,21.4,36.92,33.3,64.02,34.7,8.94-2.87,17.33-6.77,24.13-11.99-1.22.1-2.43.15-3.64.15-10.33,0-19.63-3.54-26.17-9.97Z" style="fill:#daa520;"/><path d="m322.18,755.83c-2.46,1.14-5.11,1.72-7.88,1.72s-5.28-.52-7.88-1.56c2.9,2.69,6.62,4.28,10.22,4.28.88,0,1.77-.1,2.63-.29,3.17-1.02,5.73-3.82,7.32-6.02.47-.66.91-1.34,1.32-2.04-1.3,1.31-2.79,2.42-4.44,3.29-.41.22-.83.42-1.29.62Z" style="fill:#daa520;"/><path d="m75.61,133.42c-.35-5.62.19-11.3,1.55-16.64h0c.33-1.33,1.38-5.38,2.74-8.08.58-1.33,1.5-2.51,2.69-3.38,1.36-1.02,3.06-1.58,4.85-1.58h1.01l1.06.26.73.19.05.02,1.29.34,1.48,1.36c4.45,4.1,7.81,8.85,9.96,12.07l.12.18c2.05,3.27,4.89,8.32,6.85,13.94,1,2.51,1.79,4.99,2.38,7.42,9-5.73,19.01-8.77,29.26-8.77,1.85,0,3.74.1,5.6.3,1.8.13,3.55.36,5.27.67-14.76-15.3-25.59-34.66-31.32-55.96-14.53-5.07-31.4-6.69-47.31-6.69-24.96,0-54.9,2.99-68.88,8.98l1,10.98c34.09,11.37,55.8,23.67,69.62,44.39Z" style="fill:#daa520;"/><path d="m155.65,168.56l.21.15c1.3.95,2.99,1.48,4.75,1.48,1.05,0,2.08-.2,2.99-.57.45-.18.9-.41,1.36-.7-1.59-8.24-9.26-14.22-19.12-14.41h-.25s-.3-.03-.33-.03c1.87.59,3.49,1.82,4.58,3.52,1.13,1.78,1.53,3.8,1.28,5.72.31,1.21,1.3,2.65,4.53,4.84Z" style="fill:#daa520;"/><path d="m92.84,414.46h6.99v29.71c1.38-.19,2.78-.29,4.17-.29,9.58,0,18.74,4.38,25.18,12.03,7.38,8.13,10.74,19.43,8.98,30.29-.65,4.19-1.86,8.04-3.48,11.64,7-2.46,14.35-3.77,21.84-3.77,1.26,0,2.54.04,3.8.11,14.53.75,28.36,5.33,39.84,12.72-.19-7.58-.32-15.42-.4-23.54-13.98-22.12-31.08-43.25-47.14-63.09-4.81-5.95-9.37-11.58-13.82-17.2-19.32-13.89-37.03-28.82-50.37-40.34-.05.4-.13.79-.24,1.19-.12.51-.3,1.01-.51,1.49-1.64,4.24-4.59,7.69-8.39,9.77-2.66,1.55-5.72,2.36-8.84,2.36-5.55,0-10.7-2.56-14.23-6.82C20.24,388.18,0,421.49,0,461.38l12.98,2.99c10.98-35.94,41.93-49.91,79.86-49.91Z" style="fill:#daa520;"/><path d="m170.66,119.66c-.22-.8-2.19-2.81-3.25-3.89l-.05-.05c-.96-.95-1.95-1.89-2.94-2.84-1.57-1.49-3.18-3.04-4.78-4.69-1.69-1.69-3.26-3.48-4.71-5.34,4.48,8.1,10.06,15.7,16.54,22.5,0-.02,0-.03,0-.04-.19-1.63-.4-3.26-.62-4.87-.07-.26-.14-.52-.19-.78Z" style="fill:#daa520;"/><path d="m31.44,738.03c-7.61,3.42-16.06,6.65-25.45,9.85l-1,10.98c11.92,5.5,33.12,8.48,55.84,8.92-11.39-7.64-21.29-17.61-29.39-29.75Z" style="fill:#daa520;"/><path d="m557.03,636.08c0-14.97-2.99-36.94-9.98-57.9h-11.98c-19.97,90.84-86.85,135.76-176.69,135.76-2.34,0-4.65-.01-6.93-.04,8.2,17.57,5.99,39.35-5.78,54.2,120.83,1.68,166.89,11.61,171.44,20.71l10.98,1c4.99-7.99,8.98-18.97,8.98-27.95,0-11.98-3.99-24.96-8.98-35.94,16.97-27.95,28.95-52.91,28.95-89.84Z" style="fill:#daa520;"/><path d="m266.43,103.73c-2.48,1.99-4.98,4.35-7.63,7.24,2.09-1.24,3.83-2.9,5.08-4.29.87-.96,1.72-1.94,2.56-2.95Z" style="fill:#daa520;"/><path d="m187.87,85.19c-.5,0-.98-.05-1.46-.13.28.88.56,1.76.81,2.65.56-.87,1.14-1.73,1.72-2.59-.35.05-.71.07-1.07.07h0Z" style="fill:#daa520;"/><path d="m209.49,171.93c-2.02-.96-4.16-1.89-6.74-2.94-1.14-.32-2.27-.65-3.38-.99,1.06.88,2.09,1.72,3.1,2.54,6.57,4.2,14.05,6.94,22.01,9.47-5.29-3.29-10.41-5.96-14.99-8.08Z" style="fill:#daa520;"/><path d="m244.2,121.19c.51.02,1.02.07,1.53.1-.02-.31-.03-.63,0-.94.02-.33.06-.66.11-.98-.54.61-1.07,1.22-1.63,1.82Z" style="fill:#daa520;"/><path d="m214.95,208.08c.19.39.37.78.55,1.18.06-.21.12-.43.19-.65-.25-.18-.49-.36-.74-.53Z" style="fill:#daa520;"/><path d="m176.09,144.24c5.4,5.71,9.04,12.94,10.25,21.08l2.53-2.29c-.49-.6-.9-1.26-1.21-1.99-.91-2.09-.96-4.4-.13-6.52,1.29-3.28,4.4-5.4,7.92-5.4h.3c2.61.1,5.18.17,7.66.22,6.21-1.01,12.35-4.02,19.08-7.6-2.29.09-4.58.25-6.86.46-3,.28-6.08.69-9.38,1.24-3.22.85-6.6,1.53-10.04,2.02-1.25.29-2.49.59-3.73.91-.71.19-1.43.28-2.16.28-3.98,0-7.38-2.7-8.28-6.57-1.01-4.19,1.31-8.46,5.42-9.93,1.62-.59,3.29-1.16,5.07-1.74,2.9-1.38,5.52-2.71,7.98-4.07,3.7-4.17,6.23-10.37,8.68-16.38.74-1.82,1.51-3.71,2.31-5.53l.62-1.48c1.56-3.71,3.17-7.55,5.55-11.3,3.4-5.36,7.27-10.1,11.01-14.69.31-.38.62-.76.93-1.14-11.98,7.83-22.28,18.12-30.04,30.19-4.34,6.84-7.97,14.38-10.74,22.35-.56,1.62-1.59,3-2.91,3.99-1.56,1.54-3.69,2.48-5.99,2.48-.42,0-.84-.03-1.25-.09.73,1.19,1.15,2.56,1.22,4,.11,2.27-.66,4.44-2.19,6.12-.48.53-1.03.99-1.62,1.37Z" style="fill:#daa520;"/><path d="m342.88,714.69c-16.43-29.92-53.09-39.7-84.88-41.46-8-.42-16-.32-23.94.15-15.47.91-30.91,1.8-46.35,2.11-9.61.13-18.99.12-28.36-.98-5.45-.57-11.66-1.19-16.97-2.17-14.5-2.54-28.72-7.37-40.73-15.83-24.19-16.74-36.52-47.61-32.5-76.53,1.01-8.22,3.24-16.17,7.05-23.41,2.44-4.81,5.19-9.54,8.4-13.88.17-.2.33-.4.46-.62.5-.66,1.01-1.3,1.53-1.94,4.62-5.73,10.23-10.9,15.88-16.28,11.44-11.05,25.22-22.23,27.8-38.93,1.37-8.44-1.36-17.48-7.11-23.74-5.47-6.57-13.92-10.3-22.43-9.06-15.28,1.98-19.11,17.39-11.72,25.82,2.77,3.36,7.12,5.44,12.62,5.97.26.02.52-.17.54-.45.03-.27-.18-.52-.45-.54-3.96-.37-7.27-1.59-9.79-3.53-3-2.51-4.94-6.07-4.78-10.44.09-7.79,6.42-13.21,13.92-13.54,7.29-.6,14.28,2.98,18.55,8.75,4.53,5.54,6.35,12.81,4.88,19.77-3.02,14.76-16.62,24.53-27.29,34.14-5.84,5.09-11.89,10.31-17.24,16.54-.4.46-.78.92-1.16,1.39-.3.19-.59.41-.85.68-.01.01-.03.02-.05.04-34.06,35.76-53.78,71.99-58.63,107.68-3.84,28.3,1.29,55.86,15.7,84.25.05.09.1.18.15.27,19,31.76,49.85,48.85,87.64,48.85,3.56,0,7.18-.15,10.85-.46,0,0,0,0,0,0,22.44-2.55,44.76-15.18,54.38-36.24,8.34-18.6,4.3-43.63-13.75-53.62,12.41.29,24.85-.31,37.21-.94,5.44-.27,10.88-.67,16.32-1.04.02,0,.04.02.07.02,9.26,2.06,17.96,7.06,23.19,15.1,3.21,4.93,5.57,10.67,5.71,16.61.15,8.9-5.06,17.89-13.48,21.26-3.84,1.71-8.23,2.08-12.26.76-3.66-1.14-7.3-3.52-8.7-7.23-.66-1.98-.69-4.23.42-6.08,1.83-2.9,6.15-5.19,9.48-3.64-3.35-1.69-7.83.53-9.8,3.45-1.24,1.91-1.29,4.33-.67,6.46,1.35,3.99,5.11,6.66,8.95,8,4.21,1.54,8.97,1.3,13.11-.38,7.92-2.89,13.62-10.47,14.93-18.72,2.06-12.7-5.44-26.17-15.84-33.23-1.66-1.13-3.41-2.12-5.21-2.99,6.61-.34,13.22-.52,19.84-.25,28.36,1.12,61.43,8.68,77,34.63,7.17,12.1,6.73,27.99-1.44,39.43-2.97,4.09-6.87,7.61-11.71,9.05-15.57,3.73-31.63-12.02-27.22-27.76,1.44-4.93,4.83-9.81,9.55-12.07.11.02.23.05.34.07,7.82,2.74,9.5,8.64,6.21,15.96-.64,1.08-1.41,2.17-2.32,3.27-.01.01-.02.03-.03.05-.01.02-.03.03-.04.05,0,.01,0,.03-.01.04-.01.03-.02.06-.03.09,0,.03-.01.06,0,.1,0,.03,0,.06.01.09,0,.03.01.06.03.09.01.03.03.05.04.08.02.03.04.06.07.08,0,.01.01.02.03.03.02.01.04.02.06.03.01,0,.02.02.04.03,3.8,1.92,7.64,2.09,10.85.57.28-.12.56-.25.83-.39,4.76-2.46,6.71-8.34,5.79-13.43-1.63-7.6-9.91-11.72-17.21-11.61-4.3.06-8.64,1.85-11.8,4.85-18.15,17.36-3.94,45.73,19.77,47.01,9,.67,17.57-4.75,22.94-11.59,10.94-13.58,12.03-33.55,3.66-48.67Zm-199.95-30.1c.78.13,1.57.25,2.35.36-2.61,1.02-5.05,2.49-7.03,4.42-6.5,6.07-8.92,15.17-8.33,23.77.45,6.19,3.88,11.97,8.7,15.69,1.12.91,2.33,1.66,3.59,2.3.14.07.27.15.4.22,3.75,1.93,7.8,2.72,11.86,2.39-11.42,1.97-24.15-2.43-29.06-13.39-2.64-6-2.77-13.04-1.08-19.31,2.59-9.48,9.98-14.87,18.6-16.46Zm-3.07-.53c-12.46,2.96-20.58,14.75-18.24,30.35,2.3,16.22,18.92,23.61,33.25,20.13-10.2,3.46-21.65,3.46-30.58-2.62-6.67-4.94-10.38-13.38-10.72-21.52-.43-13.85,7.74-23.71,18.66-27.97,2.53.62,5.08,1.16,7.63,1.63Zm-111.09-1.4c3.8,5.43,9.06,9.61,15.86,10.86,6.31,1.24,13.72.44,19.15-3.45,5.78-3.5,9.91-10.21,9.39-17.09-.09-8.44-7.88-16.03-16.29-14.48-2.49.36-4.93,2-6.38,3.89-.28.36-.56.73-.84,1.1.39-.64.85-1.3,1.42-1.96.35-.36.7-.71,1.07-1.04,8.1-6.9,21.08-5.22,28.45,1.86,7.13,7.23,7.55,19.77,2.83,28.33-4.21,7.58-13.04,12.35-21.51,13.85-11.73,1.78-22.85-3.82-31.1-12.1-.81-3.26-1.5-6.52-2.05-9.78Zm157.69,36.32c.72,28.35-27.53,47.85-53.59,49.36,0,0,0,0,0,0-39.06,3.23-71-12.35-89.95-43.91-4.95-9.77-8.74-19.51-11.38-29.24,7.87,8.58,19.06,14.27,30.87,12.8,9.81-1.41,19.44-6.56,24.5-15.33,5.55-10.22,4.7-24.49-3.99-32.72-6.25-5.43-15.31-7.7-23.25-5.23-3.29.93-6.4,2.87-8.68,5.47-3.58,3.75-4.15,7.9-4.16,7.97,0,.02,0,.03,0,.05,0,.03,0,.07.01.1,0,.03.02.06.03.09.01.03.03.05.04.08.02.03.04.05.06.07.02.02.05.04.07.06.03.02.06.03.09.05.02,0,.03.02.05.02s.03,0,.05,0c.02,0,.03.01.05.01.02,0,.03,0,.05,0,.03,0,.07,0,.1-.01.03,0,.07-.02.1-.03.02-.01.05-.02.07-.04.03-.02.06-.04.09-.07.02-.02.03-.04.05-.06.02-.03.04-.06.05-.1,0-.01.02-.03.02-.04.1-.34.44-.87.94-1.48,1.11-.89,2.36-1.61,3.56-2.32,1.66-.92,3.1-1.41,4.88-1.12,6.41.87,9.02,8.37,5.96,13.65-1.04,1.95-2.84,3.5-4.76,4.67-3.76,2.54-7.97,2.86-12.52,2.49-7.38-.71-13.53-6.96-18.54-13.45-2.41-33.16,8.71-66.26,33.46-99.86-6.73,26.47-.48,56.07,16.22,77.78,11.94,15.91,29.3,26.05,48.06,31.78-7.71,3.93-13.92,10.81-16.39,20.21-3.09,11.35.32,24.18,8.69,32.41,8.38,8.23,21.73,9.29,32.32,5.8,4.19-1.34,8.14-3.34,11.63-5.89,1.61-.98,3.15-2.07,4.61-3.27.02-.02.03-.04.05-.06.02-.02.04-.05.06-.07.02-.03.03-.06.04-.09.01-.03.02-.06.03-.09,0-.03,0-.06,0-.09,0-.03,0-.06,0-.1,0-.03-.02-.06-.04-.1,0-.02-.01-.04-.02-.06,0,0-.01-.01-.02-.02,0,0,0-.02-.01-.03-.02-.02-.04-.03-.06-.05-.02-.02-.05-.04-.07-.06-.03-.02-.06-.03-.09-.04-.03-.01-.06-.02-.09-.03-.03,0-.06,0-.08,0-.04,0-.07,0-.11,0-.03,0-.06.02-.09.04-.02.01-.05.01-.07.03-7.12,4.59-15.23,5.15-22.25,1.54-.73-.38-1.44-.8-2.12-1.25-.56-.39-1.1-.81-1.62-1.26-4.43-3.72-7.37-9.15-7.58-14.91-.26-7.86,2.32-16.39,8.39-21.58,3.4-3.01,7.6-4.5,12.15-4.7,4.54-.36,9.12.07,13.38,1.44,13.42,4.04,20.89,17.23,20.78,30.78Zm136.83,16.18c1.09,4.34-.14,9.53-4.09,12.04-.28.18-.57.32-.86.47-2.72,1.24-5.96,1.13-9.21-.34,5.4-1.26,10.6-5.53,10.65-11.46.03-3.56-1.89-6.44-4.6-8.4,3.75,1.27,7.04,3.86,8.11,7.69Zm-14.79-8.55c1.53-.13,3.16,0,4.76.34,3.14,2.01,5.57,5.04,5.52,8.92-.03,5.53-4.76,9.53-9.66,11.41.68-.86,1.29-1.72,1.81-2.57,4.08-5.52,4.3-13.15-3.03-16.67-.81-.37-1.65-.63-2.5-.82.99-.32,2.02-.54,3.1-.61Z" style="fill:#daa520;"/><path d="m265.24,175.55c-.14-.06-.3-.04-.41.08-.13.14-.12.37.02.5,1.94,1.72,3.88,3.54,6.05,4.99,9.83,6.9,22.11,10.31,34.13,9.55,6.05-.43,12-1.86,17.64-4.07.96-.44,2.08-.71,2.9-1.45,1.12-1.09,1.14-2.88.05-4-.62-.64-1.14-1.11-1.71-1.62-8.28-7.33-18.47-12.58-29.29-14.81-11.4-2.36-23.4-1-34.1,3.34-.16.07-.26.25-.21.42.05.19.25.29.44.24.58-.17,1.16-.32,1.74-.47,2.14-.19,4.27-.05,6.33.4,10.9,2.7,21.41,10.93,32.35,14.92-7.38.03-14.78-.96-21.73-2.89-4.9-1.22-9.5-3.26-14.2-5.12Zm12.06-6.05c-3.1-1.28-6.49-2.25-9.89-2.35,3.29-.6,6.61-.97,9.92-1.06,13.86-.29,27.43,4.84,38.12,13.49.81.66,1.62,1.35,2.41,2.06-4.39,1.03-8.93,1.63-13.5,1.83-9.49-3.09-17.83-10.03-27.07-13.98Z" style="fill:#daa520;"/><path d="m248.17,110.48c.15.12.37.1.5-.05,4.26-5.14,8.77-9.91,13.84-13.78,11.02-8.8,25.44-11.82,39.11-9.69-4.39.78-8.65,2.33-12.38,4.78-8.05,5.09-13.16,13.43-19.4,20.27-3.38,3.78-7.66,6.95-12.58,8.22-1.07.08-2.14.16-3.21.19-.18,0-.33.15-.34.33-.01.19.14.36.33.37,18.7,1.14,37.47-5.55,51.86-17.47,3.66-2.98,7.09-6.26,10.21-9.82,1.1-1.29,2.22-2.55,3.25-4.08.76-1.35.27-3.07-1.08-3.82-19.49-10.56-43.19-9.33-58.95,7.16-4.85,4.98-8.6,10.79-11.27,16.97-.06.14-.02.31.1.41Zm62.26-21.38c.6.2,1.2.41,1.79.63-6.32,8.5-14.63,15.59-23.79,20.88-9.24,5.36-19.64,8.57-30.27,9.54,10.71-2.77,17.08-14.06,24.83-21.27,7.75-7.71,17.2-10.52,27.44-9.78Z" style="fill:#daa520;"/><path d="m187.65,77.1c.29.28.74-.13.54-.45-3.01-5.15-5.86-10.25-8.35-15.46-3.62-16.71,6.15-31.63-1.36-50.29,11.55,10.21,21.01,23.79,21.14,39.45-.01,6.24-1.72,12.48-4.59,18.15-.19.42.37.69.61.34,3.36-5.56,5.6-11.88,6.01-18.42,1.16-20.36-12.8-38.11-28.08-50.06-1.22-.75-2.82-.31-3.51.94-1.89,3.19-3.12,6.47-4.17,9.97-7.45,24.37,3.3,49.51,21.76,65.83Zm-9.08-18.6c-5.21-11.51-8.39-23.78-8.2-36.37.16-5.18,1.07-10.49,2.96-15.35,6.12,9.74,6.95,20.32,5.56,32.03-.66,6.42-1.37,13.23-.32,19.69Z" style="fill:#daa520;"/><path d="m190.01,185.82c-.54-1.11-1.11-2.2-1.77-3.28-1.11-1.7-3.62-.02-2.51,1.64,3.5,5.16,5.42,11.36,6.81,17.65,3.42,17.28,6.04,32.21,16.88,45.08-16.13-10.84-27.21-28.13-25.96-48.12,0-.46-.63-.48-.7-.06-.36,2.86-.52,5.75-.43,8.65.1,2.9.45,5.8,1.07,8.66,2.41,11.53,9.1,21.91,17.69,29.88,3.23,3.03,6.73,5.77,10.46,8.16,1.27.81,2.48,1.55,3.93,2.3.42.22.9.32,1.41.27,1.43-.13,2.45-1.45,2.25-2.87-.33-3.42-.86-6.6-1.46-9.86-2.8-16.24-8.21-32.16-17.66-45.78-2.99-4.38-6.3-8.54-10.01-12.33Zm23.08,63.43c-.85-.51-1.7-1.04-2.51-1.57,0,0-.02-.01-.03-.02-6.29-7.81-10.45-17.2-12.44-27.07-1.73-7.43-2.4-15.19-4.05-22.67.46.94.92,1.89,1.36,2.84,2.7,5.74,5.17,11.56,7.47,17.45,3.94,10.08,7.95,20.39,10.2,31.03Z" style="fill:#daa520;"/><path d="m125.58,56.87c4.02,31.44,20.11,61.51,45.52,80.69.2.15.5.13.68-.06.19-.2.17-.52-.04-.71-13.03-11.86-23.36-26.54-29.86-42.85-5.17-12.94-8.43-26.79-9.09-40.72,2.15.78,4.18,1.9,5.96,3.32,8.43,6.89,11.53,17.77,15.22,27.64,2.19,6.95,6.25,13.27,11.39,18.4,2.51,2.61,5.19,5.02,7.69,7.5,2.25,2.3,4.83,4.91,5.47,8.02.03.16.09.3.15.43.28,1.93.53,3.88.76,5.84.02.21.18.39.4.44.27.06.54-.12.6-.39.03-.15.06-.31.09-.46.04.03.08.05.12.07.26.09.55-.05.64-.31,2.95-8.46,6.81-16.55,11.56-24.04,13.21-20.57,33.57-36.48,56.62-44.48-.04.68-.12,1.35-.26,2.02-1.39,6.21-5.39,11.38-9.19,16.37-5.17,6.71-10.94,13-15.59,20.33-2.33,3.66-3.92,7.74-5.59,11.69-3.7,8.47-6.78,18.45-13.34,25.1-3.23,1.82-6.58,3.52-10,5.13-1.78.57-3.56,1.17-5.32,1.81-.24.08-.39.34-.33.59.06.28.35.44.62.36,1.43-.36,2.86-.71,4.3-1.04,3.28-.45,6.56-1.1,9.79-1.97,3.43-.58,6.88-1.06,10.35-1.38,21.26-1.95,43.44.74,62.97,9.57-2.1.77-4.34,1.12-6.58,1.06-9.45-.35-18.69-4.5-28.31-3.01-5.78.84-11,4.04-16.04,6.58-7.28,3.88-14.88,7.77-23,8.92-2.83-.05-5.65-.12-8.48-.23-.21,0-.4.12-.48.32-.1.26.03.56.29.66,3.28,1.29,6.64,2.37,10.05,3.3,2.54,1.03,5.05,2.1,7.53,3.27,21.32,9.88,40.95,25.08,53.65,45-.14,0-.27-.01-.41-.02-7.25-9.8-19.76-14.47-31.11-18.03-12.69-4.02-26-7.32-37.2-14.59-4.05-3.27-8.01-6.63-11.89-9.99,10.21,14.48,22.71,27.31,37.54,37.19,13.22,8.71,28.85,15.26,45.01,15.5,2.91-.07,5.93.05,8.74-.98,2.46-1.17,3.5-4.11,2.33-6.57-.32-.68-.56-1.14-.84-1.66-11.51-20.68-30.67-36.59-52.55-45.43,21.48,1.83,43.85-2.8,61.48-15.65.94-.67,1.91-1.47,2.8-2.22,2.07-1.71,1.75-5.18-.62-6.46-2-1.11-4.03-2.02-6.09-2.91-13.86-5.8-28.95-8.55-43.89-8.81-7.29-.1-14.56.42-21.75,1.5,1.35-.66,2.7-1.35,4.02-2.1,28.9-16.25,39.39-48.22,35.25-79.87-.6-2-2.7-3.14-4.7-2.54-1.3.39-2.34.76-3.47,1.17-3.28,1.22-6.49,2.63-9.62,4.18-27.89,13.57-49.83,38.89-58.31,68.74,1.1-7.22,1.13-14.69.02-22.09-3.19-22.74-18.34-42.7-38.65-53.15-3.48-1.89-7.11-3.56-10.82-4.97-.92-.3-1.99-.83-3.05-.86-2.18-.05-3.99,1.68-4.04,3.86-.03,1.34,0,2.43.04,3.62.13,3.46.44,6.91.89,10.32Zm101.93,140.59c-6.45-3.51-12.69-7.57-18.73-11.96,1.92.72,3.85,1.38,5.79,2,17.07,5.81,39.28,7.5,51.2,22.15-13.41-.58-26.36-5.89-38.26-12.19Zm51.98-52.92c-4.65,2.48-9.65,4.3-14.69,5.83-16.36,4.98-33.27,6.73-50.31,6.99,1.22-.37,2.41-.78,3.58-1.25,3.61-1.39,7.04-3.14,10.33-5.02,4.92-2.66,9.47-5.95,14.96-6.98,9.34-1.82,18.54,1.97,27.95,1.68,2.49-.07,4.98-.64,7.23-1.7.31.14.63.28.94.43Zm-29.56-87.46c-.72,25.06-11.82,49.89-31.88,65.36-2.18,1.72-4.47,3.31-6.83,4.84,4.79-6.08,7.74-13.4,10.38-20.56,1.47-3.99,2.82-7.99,4.89-11.53,6.28-10.91,15.9-20.12,21.37-31.68,1.08-2.39,1.94-5.04,2.08-7.69,0,.43,0,.85-.01,1.27Zm-75.52,42.56c1.18,3.55,2.1,7.21,2.87,10.94-.78-.82-1.59-1.61-2.4-2.38-2.66-2.47-5.38-4.75-7.91-7.21-3.79-3.66-7.17-7.72-9.47-12.47-5.14-11.13-8.28-24.45-18.52-32.27-1.88-1.39-3.99-2.45-6.2-3.16-.05-1.16-.09-2.33-.1-3.49,19.27,10.3,35.24,29.41,41.73,50.04Z" style="fill:#daa520;"/><path d="m273.4,480.89c7.83-1.78,12.75-8.64,12.8-16.53.08-6.68-1.99-13.68-6.71-18.57-1.14-1.22-2.45-2.5-3.67-3.63-14.19-12.54-31.18-21.33-46.87-31.65-18.69-11.85-36.22-25.51-51.26-41.74-3.6-4.65-7.24-9.38-10.87-14.16,10.08,8.56,22.87,16.29,35.4,15.83,7.67-.53,15.14-5.06,18.28-12.24,4.57-9.92-2.29-21.95-13.78-20.28-5.68.6-11.1,7.28-7.08,12.52,2.54,3.88,8.78,2.37,9.67-2-.39,1.26-1.32,2.25-2.44,2.83-3.6,2.13-7.41-.94-7.14-4.81.15-2.3,1.88-4.3,3.95-5.38,5.26-2.81,12.52.08,14.53,5.64,3.88,10.45-6.02,20.21-16.17,20.86-12.68.73-26.54-7.77-37.34-15.79-30.4-40.28-60.04-85.11-66.64-133.85-.81-6.66-1.29-13.61-.99-20.29,1.57-25.05,21.4-53.37,48.92-51.13,15.31.29,27.43,11.31,27.28,25.89-1.94,1.93-4.12,3.61-6.62,4.61-5.02,2.07-11.11,1.36-15.5-1.84-4.41-3.01-7.93-6.48-8.16-12.19.2-.16.26-.44.12-.66-.15-.23-.46-.3-.69-.16-3.83,2.42-6.24,6.21-6.99,10.64-1.3,6.41.84,13.85,5.4,18.58,5.14,5.91,14.06,7.27,21.29,4.65,11.36-3.85,17.81-16.46,16.49-28.07-1.71-16.68-15.84-27.84-32.1-28.95-16.57-1.8-31.15,5.66-41.73,17.37.05-.26.1-.51.13-.74,1.58-6.99.2-14.2-2.43-20.75-1.47-4.28-3.72-8.64-6.13-12.48-2.55-3.82-5.34-7.5-8.72-10.62-.03-.03-.06-.03-.1-.04,0,0,0,0-.01,0-.07-.02-.15-.02-.21.03-.06.05-.09.12-.09.2-.79,1.14-2.19,6.18-2.31,6.78-4.04,15.85.35,35.41,16.27,41.98-4.44,5.85-7.97,12.48-10.39,19.41-.58-1.78-1.28-3.52-2.12-5.2-2.29-5.06-6.06-9.29-9.87-13.27-5.58-5.97-12.3-10.97-19.51-14.77-2.4-1.26-4.86-2.4-7.42-3.29-.02,0-.05,0-.08,0,0,0-.02,0-.03,0,0,0-.01,0-.02,0-.04,0-.07.02-.1.05-.03.02-.05.03-.06.06,0,0-.01,0-.02.01,0,.01,0,.02,0,.03-.01.03-.04.06-.04.1.1,2.84.58,5.64,1.26,8.4,2.04,8.37,6.15,16.27,12,22.63,3.88,4.29,8.34,8.36,13.71,10.75,3.14,1.45,6.48,2.53,9.89,3.16-.54,2.61-.92,5.23-1.13,7.83-.35,1.6-.7,3.26-1.05,4.99-6.01,26.54-7.39,54.2-2.07,81.01,7.74,40.87,27.8,74.83,53.52,106.43-13.15-12.6-26.93-24.51-40.93-36.16-6.98-6.27-16.57-12.13-26.2-8.44-6.8,2.71-12.32,10.73-9.99,18.07,2.77,6.68,9.9,8.61,14.83,5.67,2.24-1.2,4.01-3.29,4.97-6,.06-.08.1-.18.1-.28.02-.05.04-.1.05-.15.08-.26-.06-.54-.33-.63-.27-.08-.54.06-.63.33,0,.02-.02.04-.03.06-.4.15-.79.28-1.18.39-3.02.16-5.86.05-8.02-2.37-1.11-1.37-1.83-3.02-2.28-4.77-.28-1.43-.39-2.91-.37-4.32,1.28-1.07,2.71-1.91,4.17-2.41,2.42-.79,5.14-.77,7.71-.16,5.37,1.15,10.03,5.12,14.06,8.73,16.42,14.18,33.12,27.97,50.78,40.6,36.12,45.75,85.71,99.51,92.35,158.73,2.94,28.56-3.8,61.58-28.62,78.88-15.58,10.95-36.55,14.1-55.13,10.28-28.07-5.94-50.69-32.78-52.04-61.33-.22-28.25,16.28-59.73,44.49-68.09,24.68-6.9,58.31,6.98,65.93,32.58-.04,6.72-1.4,13.45-4.93,19.13-4.11,6.99-11.24,11.77-18.84,12.37-7.66.73-14.66-3.14-20.26-8-6-5.32-9.3-12.64-11.28-20.62.06-.15.07-.32-.03-.47-.15-.23-.45-.3-.69-.16-3.62,2.29-6.75,5.05-9.26,8.11-8.24,9.42-10.77,22.67-2.91,34.27,6.09,9.48,16.66,16.04,27.98,17.06,37.27,3.42,61.67-42.03,45.76-73.67-10.7-20.96-34.17-32.95-57.06-34.13-30.7-1.76-55.61,20.95-66.36,48.14-9.16,22.52-9.16,46.14,2.59,67.54,17.49,32.72,51.82,48.89,88.27,42.34,30.16-4.79,53.44-26.43,62.21-55.42.57-1.85,1.07-3.71,1.54-5.57,7.61-20.05,11.6-41.44,10.34-63.01-3.65-55.57-34.24-104.5-66.36-148.51,16.55,16.43,36.37,29.77,56.02,41.85,9.19,5.95,18.32,11.63,26.2,19.05,1.42,1.38,2.8,2.65,3.76,4.41,2.41,4.32,3.81,9.76,2.93,14.73-.91.79-1.86,1.44-2.83,1.93-.2.09-.41.17-.62.25-6.59,2.54-10.98-2.29-12.69-8.09-.08-.66-.11-1.34-.1-2.04,0-.01,0-.03,0-.04,0-.03,0-.06-.02-.1,0-.03-.02-.06-.03-.09,0-.01,0-.03-.01-.04,0-.02-.02-.03-.04-.04-.02-.03-.04-.05-.07-.07-.02-.02-.05-.04-.08-.06-.03-.02-.05-.03-.08-.04-.03-.01-.07-.02-.1-.02-.02,0-.03-.01-.05-.01,0,0-.02,0-.03,0-.08,0-.17.02-.24.06-2.18,1.3-3.88,2.96-5,4.82-2.79,3.88-2.26,9.48.66,13.2,3.17,4.18,9,4.71,13.71,3.53Zm-112.63-288.47c-5.99,2.48-13.35,2-18.17-2.78-4.83-4.42-7.23-11.84-5.83-18.21.63-2.35,1.82-4.6,3.75-6.49-6.36,8.67,1.12,20.83,11.71,22.42,7.79,1.36,15.6-2.08,20.07-8.12-1.73,5.78-5.87,10.9-11.53,13.19Zm12.15-15.92c-4.45,6.47-12.28,10.28-20.35,8.88-9.41-1.49-16.04-11.21-12.01-19.6-1,3.39-.1,7.47,2.12,10.18,2.94,3.93,7.66,5.62,12.32,6.25,6.65,1.11,13.79-1.54,17.86-6.91.09-.11.18-.23.27-.35-.05.51-.13,1.03-.21,1.55Zm-77.51-30.24c.99,2.8,1.93,5.6,3.1,8.3-.27-.32-.56-.64-.82-.97-3.45-4.37-6.93-8.84-9-14.07-1.59-4.29-2.37-8.88-2.51-13.48-.16-4.49.32-9.06,1.4-13.49,2.57,3.47,4.8,7.19,6.6,11.08,2.06,4.4,3.82,9.31,4.88,14.03.79,4.27,1.1,8.62,1.75,12.91.32,2.11.52,4.23.74,6.34-2.1-3.44-3.67-7.33-5.2-10.99-2.1-5.28-3.95-10.68-5.59-16.13,1.33,5.55,2.86,11.04,4.65,16.48Zm-17.09,216.69c.24-.06.48-.13.73-.2-.85,1.87-2.13,3.36-3.71,4.32-4.48,2.32-10.34.58-12.38-5.41-.83-3.69.95-7.55,3.72-10.31.03,1.22.16,2.48.41,3.7.84,6.41,5.48,10.63,11.23,7.9Zm93.28,241.58c-10.04-.4-19.56-5.51-25.62-13.6-7.73-10.05-6.1-22.05.58-31.26,1.46-1.84,3.15-3.57,5.04-5.16-7.54,15.53,2.64,33.28,17.88,39.49,5.22,2.07,11.11,1.89,16.56.91,11.38-2.37,19.22-9.05,23.64-17.73-6.1,15.65-20.11,27.93-38.06,27.35Zm13.87-12.51c-3.73.69-7.64.76-11.39.24-3.7-.65-7.11-2.49-10.21-4.64-10.83-7.52-16.45-20.45-12.1-33.26,1.01-.84,2.09-1.64,3.21-2.39-.95,4.05-.95,8.41.05,12.66,3.49,15.2,18.23,24.34,33.45,21.47,12.95-2.32,20.87-11.85,23.66-23.2-2.28,13.97-10.69,25.81-26.67,29.12ZM74.02,176.99c-6.89-4.3-12.35-10.64-16.29-17.71-2.59-4.62-4.54-9.69-5.59-14.96,4.52,2.46,8.78,5.41,12.66,8.73,4.57,3.8,8.61,8.13,12.22,12.77,2.91,4.13,5.4,8.53,8.08,12.8-2.94-2.07-5.73-4.3-8.59-6.59-4.21-3.63-8.11-7.64-11.8-11.8-.08-.1-.23.03-.16.12,3.24,4.59,6.88,8.9,10.88,12.86,3.15,3.24,6.84,6.38,11.17,7.9.87,1.48,1.71,2.96,2.54,4.46-.01.05-.03.1-.04.16-5.2-2.61-10.21-5.57-15.07-8.74Zm178.87,359.64c1.08,9.95,1.04,19.97.06,29.91-.8-27.13-5.98-54.22-16.79-79.21-26.83-62.34-82.51-105.8-116.74-163.37-7.63-12.69-14.31-26.05-19.69-39.86-.87-2.3-2.62-6.91-3.46-9.13-1.27-3.99-2.56-7.99-3.88-11.97-.03-.1-.14-.16-.24-.13-.11.03-.17.13-.15.24.89,3.62,1.8,7.25,2.73,10.87l.35,1.36.42,1.34s.83,2.68.83,2.68c36.74,118.63,151.98,150.25,156.22,290.71-.32,2.64-.71,5.27-1.16,7.89,1.83-29.88-7.37-60.22-22.26-86.01-26.53-46.85-64.78-85.12-98.42-126.55-37-47.55-52.68-100.72-44.41-158.71.25-1.45.52-2.85.78-4.21-.44,65.52,46.65,128.06,85.62,177.11,35.63,46,73.44,97.72,80.2,157.03Zm7.05-72.07c.9-1.47,2.21-2.78,3.84-3.89.01.43.05.86.1,1.28-.05,1.68.28,3.4,1.05,4.98,2.2,4.7,8.63,6.22,13.02,3.88,0,0,0,0,.01,0,.91-.4,1.81-.92,2.68-1.55-.07.24-.13.48-.21.71-1.93,5.48-8.19,8.63-13.85,8.1-4.11-.26-6.97-3.74-7.65-7.58-.39-2.07.04-4.1.99-5.92Z" style="fill:#daa520;"/></g></g></svg>